<?xml version="1.0" ?><!DOCTYPE svg  PUBLIC '-//W3C//DTD SVG 1.1//EN'  'http://www.w3.org/Graphics/SVG/1.1/DTD/svg11.dtd'><svg height="8.4666mm" style="shape-rendering:geometricPrecision; text-rendering:geometricPrecision; image-rendering:optimizeQuality; fill-rule:evenodd; clip-rule:evenodd" version="1.1" viewBox="0 0 846.66 846.66" width="8.4666mm" xml:space="preserve" xmlns="http://www.w3.org/2000/svg" xmlns:xlink="http://www.w3.org/1999/xlink"><defs><style type="text/css">
   <![CDATA[
    .fil0 {fill:black;fill-rule:nonzero}
   ]]>
  </style></defs><g id="Layer_x0020_1"><path class="fil0" d="M57.69 10.3l586.02 0c11.4,0 20.65,9.24 20.65,20.64l0 86.43 124.61 0c11.4,0 20.64,9.24 20.64,20.64l0 677.71c0,11.4 -9.24,20.64 -20.64,20.64l-586.02 0c-11.4,0 -20.65,-9.24 -20.65,-20.64l0 -86.43 -124.61 0c-11.4,0 -20.64,-9.24 -20.64,-20.64l0 -677.71c0,-11.4 9.24,-20.64 20.64,-20.64zm606.67 148.36l0 549.99c0,11.4 -9.25,20.64 -20.65,20.64l-420.11 0 0 65.78 544.72 0 0 -636.41 -103.96 0zm-375.67 176.69c-5.31,26.52 -45.63,18.46 -40.33,-8.06 5.33,-26.52 20.73,-49.83 42.89,-65.22 -1.02,-1.32 -2,-2.68 -2.93,-4.07 -8.05,-12.01 -12.75,-26.38 -12.75,-41.76 0,-41.49 33.64,-75.13 75.13,-75.13 41.49,0 75.13,33.64 75.13,75.13 0,16.64 -5.53,32.68 -15.68,45.83 22.17,15.38 37.57,38.7 42.89,65.22 5.3,26.52 -35.02,34.58 -40.32,8.06 -4.36,-21.68 -20.08,-39.68 -40.91,-47.03 -6.82,2.03 -13.99,3.06 -21.11,3.06 -7.1,0 -14.29,-1.03 -21.11,-3.06 -20.83,7.35 -36.55,25.34 -40.9,47.03zm62.01 -85.26c18.93,0 33.84,-15.08 33.84,-33.85 0,-18.69 -15.15,-33.84 -33.84,-33.84 -18.69,0 -33.84,15.15 -33.84,33.84 0,18.93 15.09,33.85 33.84,33.85zm-151.48 198.89c-27.16,0 -27.16,-41.29 0,-41.29l302.97 0c27.16,0 27.16,41.29 0,41.29l-302.97 0zm0 149.5c-27.16,0 -27.16,-41.29 0,-41.29l302.97 0c27.16,0 27.16,41.29 0,41.29l-302.97 0zm0 -74.75c-27.16,0 -27.16,-41.29 0,-41.29l302.97 0c27.16,0 27.16,41.29 0,41.29l-302.97 0zm423.84 -472.14l-544.72 0 0 636.41 544.72 0 0 -636.41z"/></g></svg>