<svg viewBox="0 0 32 32" xml:space="preserve" xmlns="http://www.w3.org/2000/svg" enable-background="new 0 0 32 32"><path d="M26 9h-2.6c-1.2-3-4.1-5-7.4-5-3.3 0-6.2 2-7.4 5H6c-1.7 0-3 1.3-3 3v.6C3 16.1 5.9 19 9.4 19h13.3c3.5 0 6.4-2.9 6.4-6.4V12c-.1-1.7-1.4-3-3.1-3zM16 6c2.2 0 4.1 1.2 5.2 3H10.8c1.1-1.8 3-3 5.2-3z" fill="#7f5af0" class="fill-000000"></path><path d="M23 21v2c0 .6-.4 1-1 1s-1-.4-1-1v-2H11v2c0 .6-.4 1-1 1s-1-.4-1-1v-2c-2.4-.1-4.5-1.2-6-2.9V25c0 1.7 1.3 3 3 3h20c1.7 0 3-1.3 3-3v-6.9c-1.5 1.7-3.6 2.8-6 2.9z" fill="#7f5af0" class="fill-000000"></path></svg>